<svg xmlns="http://www.w3.org/2000/svg" viewBox="0 0 655 476"><defs><style>.cls-1{fill:#fff;stroke:#d1d1d1;stroke-miterlimit:10;stroke-width:10px;}.cls-2{fill:#d1d1d1;}</style></defs><title>no_img</title><g id="圖層_2" data-name="圖層 2"><g id="圖層_1-2" data-name="圖層 1"><g id="圖層_2-2" data-name="圖層 2"><g id="圖層_1-2-2" data-name="圖層 1-2"><rect class="cls-1" x="5" y="5" width="645" height="466" rx="47.42" ry="47.42"/><g id="Outline"><path class="cls-2" d="M256.47,156.07h9.9v10h-9.9Zm24.76,10h9.9v-10h-9.9Zm183.73,87a125.15,125.15,0,0,1,9.39,47.71v35.55a5,5,0,0,1-5,5H429.78v-10h34.67V300.77a114.52,114.52,0,0,0-33.22-81.07l-34.06-34.44a41.18,41.18,0,0,1-11.64-24.18H310.94V311.29a5,5,0,0,1-4.95,5,10,10,0,0,0-9.91,10v5h19.81v-5a20,20,0,0,1,14.86-19.4V216.15h9.9v95.14a5,5,0,0,1-4.95,5,10,10,0,0,0-9.91,10v5h34.67V216.15h9.9V309a19.57,19.57,0,0,1,9.9-2.69h9.91V284.53a73.33,73.33,0,0,1,21.26-51.89l7,7.08a63.39,63.39,0,0,0-18.36,44.81v26.76a5,5,0,0,1-4.95,5H380.26a10,10,0,0,0-9.9,10v5h50.76v10H182.19a5,5,0,0,1-4.95-5v-121a35.18,35.18,0,0,1,5.82-19.44l9.84-14.92A25.18,25.18,0,0,0,197.05,167v-.31a26.5,26.5,0,0,0-10.36-21L183,142.92a14.67,14.67,0,0,1-5.77-11.67v-.19a15,15,0,0,1,14.85-15h1.48a14.73,14.73,0,0,1,9.28,3.29l3.07,2.48a56.56,56.56,0,0,1,11.51,75l-8,12.12a15,15,0,0,0-1.86,4l-9.48-2.9a25.11,25.11,0,0,1,3.09-6.64l8-12.11a46.49,46.49,0,0,0-9.46-61.6l-3.07-2.48a4.88,4.88,0,0,0-3.09-1.1h-1.48a5,5,0,0,0-5,5v.19a4.6,4.6,0,0,0,1.81,3.66l3.68,2.79a36.57,36.57,0,0,1,14.32,29V167a35.15,35.15,0,0,1-5.81,19.41l-9.84,14.92a25.12,25.12,0,0,0-4.16,13.89v27.34a79.79,79.79,0,0,1,25.38-27.85L230,202.91a15,15,0,0,0,6.62-12.5V126a4.94,4.94,0,0,1,4.87-5,4.87,4.87,0,0,1,1.65.26l4.35,1.46A31.84,31.84,0,0,1,264.31,136h19a31.81,31.81,0,0,1,6.44-7.44l6.36,7.67a21.85,21.85,0,0,0-5.48,7A5,5,0,0,1,286.2,146H261.42a5,5,0,0,1-4.43-2.77,21.84,21.84,0,0,0-10.43-10.18v57.3a25.07,25.07,0,0,1-11,20.83L218,223.06a70.23,70.23,0,0,0-30.88,58.32v49.93h69.33a10,10,0,0,0-9.91-10H231.71a5,5,0,0,1-5-5v-13.8a46.25,46.25,0,0,0-13.41-32.73l7-7.08a56.24,56.24,0,0,1,16.31,39.81v8.8h9.9a20,20,0,0,1,5,.63V256.21h9.9v61.88a20.13,20.13,0,0,1,4.95,13.22h9.91v-75.1h9.9v70.1A20,20,0,0,1,301,306.91V111h-9.9a5,5,0,0,1-4.55-3L271.69,73a5,5,0,0,1,1.93-6.22L293.82,54l5.25,8.5L282.5,72.92,294.4,101H301V81a5,5,0,0,1,.53-2.24l9.9-20,8.86,4.48-9.38,19V131h74.28V82.15l-9.38-19,8.85-4.48,9.91,20a5.11,5.11,0,0,1,.52,2.24v20h6.64l11.9-28.07L384.87,54.73a24.43,24.43,0,0,0-13.13-3.8H324.41a24.37,24.37,0,0,0-13.12,3.8l-4.46,2.82-5.25-8.49L306,46.24a34.36,34.36,0,0,1,18.37-5.33H371.7a34.37,34.37,0,0,1,18.38,5.33L422.5,66.7a5,5,0,0,1,1.93,6.22L409.58,108a5,5,0,0,1-4.56,3h-9.9v45.06a31.27,31.27,0,0,0,9.05,22.1l25,25.31c3.82-24-.95-48-13.36-65.63a5,5,0,0,1,1.14-7l0,0a4.86,4.86,0,0,1,1.44-.72l10.4-3.12a21.7,21.7,0,0,1,19.56,3.5,24.46,24.46,0,0,1,9.46,17.1l.25.2c10.89,8.72,14.85,24,9.92,37.31,5.35,9.57,6.95,19.63,5.51,33.93a80.55,80.55,0,0,1-3.38,15.42l-9.46-3a71.35,71.35,0,0,0,3-13.46c1.32-13.17-.19-21.54-5.39-29.86a5,5,0,0,1-.28-4.81c4.51-9.64,2-21.29-6.07-27.71l-2-1.61a5,5,0,0,1-1.88-3.92,14.29,14.29,0,0,0-5.59-11.58,12,12,0,0,0-10.79-2l-4.06,1.24c12.2,20.86,15.91,47.92,10,74.21l.59.59A124.19,124.19,0,0,1,465,253.06Zm-79.74-112H310.94v10h74.28Zm-64.38-30h9.91a9.9,9.9,0,0,0,8.59-5.06,9.66,9.66,0,0,1-8.59-9.64V90.66A9.64,9.64,0,0,1,340.33,81h10.54a9.65,9.65,0,0,1,9.59,9.69v5.65a9.67,9.67,0,0,1-8.6,9.64,9.93,9.93,0,0,0,8.6,5.06h9.9v10h-9.9a19.68,19.68,0,0,1-14.86-6.79A19.67,19.67,0,0,1,330.75,121h-9.91Zm19.81-15h9.9V91h-9.9Zm-9.9-25h-9.91V81h9.91Zm39.61,0h-9.9V81h9.9Z"/></g><path class="cls-2" d="M200.19,382.92q10.94,0,10.94,24.64.65,2.4.65,10a27,27,0,0,1-11.59,2.32h-.64q.64-9.72.64-12.92v-7.62q0-10.26-4.95-13.5-12.19,3.45-12.19,10,0,24.69-3.06,24.68a64.22,64.22,0,0,1-9.17,1.16l-.6-1.16a135.22,135.22,0,0,0,1.2-17.06V386.4q0-2.52,10.38-2.9c.43.5.65,1.87.65,4.1Q192.83,382.92,200.19,382.92Z"/><path class="cls-2" d="M238.05,384.46c3.67.91,5.5,1.91,5.51,3l1.21-.58q9.64,0,11,11.76a43.24,43.24,0,0,1,1.21,5.84q0,12.38-18.35,15.86a20.6,20.6,0,0,1-5.47.62q-12.1,0-16.49-11.18l-.65-5.3q0-9.66,8.57-17C227.86,385.45,232.33,384.46,238.05,384.46Zm-5.47,5.3q-4.91,6.78-4.91,13.5,0,9.44,10.38,14.12,7.37-4.14,7.36-11.14-1.68-14.7-7.36-14.7Z"/><path class="cls-2" d="M305.36,371.54c1.27.25,2.9,2,4.91,5.34V378c0,1-1.63,1.79-4.91,2.32h-3.05q-5.52-1.12-5.52-5.26Q296.79,372.17,305.36,371.54Zm-.6,14.74h3.66c1.23,0,1.84,2.14,1.85,6.42v25.88q0,2.35-12.27,2.36V391q0-4.72,6.76-4.72Z"/><path class="cls-2" d="M356.91,386.86h4.87q9.78,0,9.78,17.6v6.46q0,2.94-.65,8.82a55.31,55.31,0,0,1-10.38,1.74h-2.41a44.92,44.92,0,0,0,1.21-11.14v-10q0-7.41-4.27-10.6-3.53,0-6.72,19.38v6.5q0,2.36-11,2.94h-.6v-15.3a53.58,53.58,0,0,0-1.21-10.56l-6.11,1.78v24.64a46.08,46.08,0,0,1-11,1.82h-.56v-25.3q0-4.68-3.1-4.68v-1.2A31.87,31.87,0,0,1,324,388q2.49,0,5.47,2.94,4.33-3.52,12.23-3.52h1.25a14.41,14.41,0,0,0,3,2.32Q349.52,387.11,356.91,386.86Z"/><path class="cls-2" d="M392.53,383.34a26.86,26.86,0,0,1,12.83,2.94l1.21-.62h4.87l7.32,35.28a20.34,20.34,0,0,1-9.13,2.32q-2.07,0-3.66-8.24h-.61q-5.07,7.08-9.77,7.08Q376,419.52,376,410.38V404.5q0-14.87,13.48-21.16Zm-6.11,27.58a7.48,7.48,0,0,0,3.05,6.5H390q9.78-7.92,12.88-15.86l-2.5-14.12h-.56q-6.12,0-11.63,11.18-1.77,4.51-1.77,12.3Z"/><path class="cls-2" d="M461.14,383.3h3c.83.14,1.25.52,1.25,1.16v8.24q-4.26,41.12-8.57,41.12-3.92,10-26.87,12.38-6.76-.92-6.76-3c.51-2.9,1.32-4.46,2.45-4.68h.65q1.8,1.39,8.52,4.1,12.63,0,16.54-24.64h-.65a34.23,34.23,0,0,1-12.83,2.94q-12.22,0-12.23-10,0-16.41,14.08-22.9,3.66-1.74,11.63-1.74l4.22.58C455.58,384.48,457.43,383.3,461.14,383.3ZM436.67,408v2.94c.92,4.3,2.76,6.46,5.52,6.46q11.58-7.26,11.58-15.86c.4,0,.61-2.75.61-8.24-1,0-3.62-1.18-7.93-3.52H445.2Q436.68,396.26,436.67,408Z"/><path class="cls-2" d="M493.7,383.3q11.58,0,11.58,9.4-6.76,8.82-20.76,8.82h-3.06l-.6,4.14q0,10.43,15.29,14.08l10.38-2.36.6,1.2q-1.15,3.51-15.89,4.63-21.4-2-21.4-17,0-13.45,14.68-21.16Zm-4.27,4.14a29.72,29.72,0,0,0-7.36,11.18H487c3.41,0,6.26-1.59,8.52-4.76v-1.74q-2.38-4.19-6.09-4.68Z"/></g></g></g></g></svg>